<?xml version="1.0" encoding="utf-8"?>
<!-- Generator: Adobe Illustrator 16.0.0, SVG Export Plug-In . SVG Version: 6.00 Build 0)  -->
<!DOCTYPE svg PUBLIC "-//W3C//DTD SVG 1.1//EN" "http://www.w3.org/Graphics/SVG/1.1/DTD/svg11.dtd">
<svg version="1.1" id="Layer_1" xmlns="http://www.w3.org/2000/svg" xmlns:xlink="http://www.w3.org/1999/xlink" x="0px" y="0px"
	 fill="#fff" width="178px" height="100px" viewBox="0 0 1366 768" enable-background="new 0 0 1366 768" xml:space="preserve">
<g>
	<g>
		<path fill-rule="evenodd" clip-rule="evenodd" d="M1117.883,401.085c-4.441-2.555-8.802-5.063-13.164-7.569
			c-1.154-0.663-2.29-1.364-3.475-1.969c-7.084-3.616-6.983-3.599-6.212-11.406c1.204-12.169,6.555-22.737,12.337-33.201
			c6.569-11.885,15.969-21.303,26.822-28.982c9.698-6.86,20.721-11.649,32.526-13.852c22.208-4.143,43.305-1.06,62.642,11.065
			c5.99,3.756,12.319,7.463,17.144,12.489c9.277,9.663,17.815,20.096,22.221,33.16c4.391,13.02,6.966,26.443,5.469,40.087
			c-1.832,16.692-7.089,32.529-17.824,45.737c-5.761,7.089-12.666,13.339-19.565,19.386c-7.404,6.491-16.375,10.396-25.621,12.762
			c4.159,15.872,8.217,31.353,12.285,46.877c-18.422-0.613-35.655-4.791-52.676-10.831c-16.085-5.709-29.57-15.331-42.985-25.323
			c-11.113-8.279-18.046-19.504-21.63-32.56c-1.755-6.391-1.521-13.339-2.068-20.044c-0.357-4.38-1.646-8.418-5.476-10.751
			c-14.712-8.968-29.67-17.536-44.323-26.601c-14.97-9.261-30.176-18.269-44.319-28.688c-7.468-5.501-14.613-12.423-17.428-22.195
			c-3.359-11.665-1.233-22.612,6.044-31.833c6.322-8.01,15.751-12.052,25.783-13.525c13.356-1.962,25.257,1.382,36.646,9.248
			c8.191,5.659,6.349,12.888,5.886,19.857c-0.414,6.243-10.658,8.332-15.598,3.572c-3.673-3.54-7.16-6.925-12.408-8.568
			c-8.132-2.547-15.016-0.673-21.51,3.976c-3.109,2.225-2.648,11.206,0.23,14.333c8.557,9.292,19.445,15.339,30.012,21.833
			c17.534,10.775,35.151,21.416,52.64,32.265c10.039,6.229,18.696,13.972,24.492,24.477c5.124,9.287,7.862,19.203,7.989,29.881
			c0.04,3.371,0.636,6.833,1.601,10.067c0.782,2.625,2.812,3.798,5.866,2.542c3.98-1.636,8.154-2.797,12.156-4.385
			c1.315-0.522,2.888-1.494,3.433-2.68c2.815-6.133,7.273-4.58,11.994-3.054c17.715,5.727,34.812,2.948,50.234-6.353
			c18.689-11.269,29.411-28.396,31.83-50.45c1.915-17.455-2.181-33.417-12.708-47.208c-11.298-14.802-26.292-23.897-45.301-25.802
			c-18.109-1.814-33.868,3.319-48.41,14.053c-8.4,6.2-14.125,14.272-18.828,23.118c-2.323,4.369-3.279,9.615-4.114,14.589
			C1119.318,385.797,1118.787,393.08,1117.883,401.085z"/>
		<path fill-rule="evenodd" clip-rule="evenodd" d="M253.098,367.969c1.921,8.562,3.607,17.186,5.846,25.663
			c1.465,5.546,4.007,10.803,5.585,16.325c4.94,17.29,13.296,33.023,22.185,48.451c6.995,12.141,15.061,23.75,24.96,33.653
			c6.9,6.902,15.038,12.723,23.188,18.183c11.673,7.819,25.011,11.668,38.582,15.116c8.525,2.166,17.082,2.917,25.614,2.892
			c17.4-0.051,34.252-3.22,50.337-10.511c13.997-6.344,26.536-14.662,37.408-25.345c8.392-8.246,15.24-17.852,20.84-28.225
			c3.417-6.331,6.326-12.938,8.723-19.792c-4.806,2.628-9.508,5.471-14.437,7.843c-12.499,6.016-25.898,8.25-39.563,7.229
			c-14.105-1.053-27.342-5.103-39.217-13.514c-9.993-7.079-18.701-15.266-24.651-25.844c-6.386-11.354-10.938-23.551-10.999-36.874
			c-0.104-22.789,0.208-45.583-0.201-68.364c-0.099-5.484,2.126-8.383,6.279-10.809c3.078-1.797,10.975-0.865,13.758,1.366
			c2.917,2.337,4.005,4.971,3.965,8.845c-0.227,21.969-0.376,43.945,0.058,65.908c0.124,6.294,1.395,12.897,3.722,18.729
			c2.721,6.817,6.517,13.468,11.093,19.195c3.252,4.071,8.41,6.75,13.009,9.576c4.039,2.48,8.285,5.142,12.797,6.207
			c5.955,1.405,12.336,2.203,18.394,1.667c7.085-0.626,14.149-2.555,20.983-4.686c6.712-2.095,12.309-6.155,17.183-11.469
			c6.965-7.593,11.202-16.573,14.799-25.979c0.604-1.58,0.856-3.388,0.859-5.092c0.054-25.244,0.037-50.49,0.04-75.735
			c0-5.6,3.83-9.414,9.559-9.337c2.398,0.033,5.035-0.158,7.137,0.746c4.562,1.959,7.31,4.778,7.221,10.856
			c-0.435,29.879,0.42,59.785-0.427,89.646c-0.515,18.15-1.992,36.487-8.9,53.692c-6.994,17.418-16.59,33.145-29.381,47.108
			c-15.844,17.297-35.299,28.517-56.982,36.354c-10.082,3.644-20.504,5.64-31.289,6.603c-13.875,1.237-27.4,0.349-40.95-2.542
			c-15.118-3.225-29.713-8.038-42.522-16.655c-8.92-6.001-17.837-12.021-25.481-20.094c-8.168-8.625-16.071-17.474-22.303-27.351
			c-7.749-12.279-14.149-25.495-20.2-38.731c-4.188-9.161-7.468-18.872-9.936-28.646c-2.674-10.592-3.996-21.53-5.782-32.338
			c-0.762-4.609-1.21-9.27-1.8-13.908C252.499,367.979,252.798,367.974,253.098,367.969z"/>
		<path fill-rule="evenodd" clip-rule="evenodd" d="M445.839,552.114c0.741-0.525,1.411-1.247,2.234-1.545
			c8.251-2.979,16.683-5.524,24.74-8.951c5.062-2.153,9.564-5.613,14.334-8.46c6.235-3.724,12.069-8.879,18.821-10.805
			c11.895-3.393,24.399-4.586,36.563-7.111c12.144-2.521,24.156-5.668,36.274-8.325c22.436-4.92,44.374-11.581,65.991-19.23
			c21.737-7.692,43.485-15.44,64.808-24.192c21.62-8.874,42.679-19.108,64.065-28.56c25.65-11.335,51.395-22.454,77.085-33.696
			c24.347-10.654,48.669-21.364,73.018-32.015c10.26-4.488,20.559-8.888,30.848-13.332c-7.861-16.483-37.463-30.912-64.582-28.023
			c-12.551,1.337-24.152,6.285-34.539,13.219c-10.468,6.987-18.81,16.392-24.169,27.925c-5.261,11.322-8.699,23.173-7.197,35.867
			c-3.876,1.728-7.442,3.316-11.097,4.944c-7.234-46.798,15.663-86.197,58.021-101.786c44.761-16.473,87.015,2.628,110.061,41.849
			c-9.483,4.735-18.981,9.393-28.404,14.198c-21.85,11.144-43.663,22.359-65.491,33.545c-20.635,10.575-41.249,21.189-61.907,31.719
			c-34.534,17.602-68.999,35.344-103.703,52.604c-10.845,5.395-22.253,9.732-33.608,14.011
			c-19.958,7.521-39.888,15.202-60.172,21.756c-26.644,8.609-53.689,15.957-81.209,21.292c-18.235,3.535-36.528,6.812-54.87,9.735
			c-8.886,1.417-17.947,1.72-26.922,2.602c-6.153,0.604-12.295,1.336-18.441,2.012C446.205,552.945,446.022,552.529,445.839,552.114
			z"/>
		<path fill-rule="evenodd" clip-rule="evenodd" d="M587.441,316.302c15.629-10.94,32.456-15.546,50.893-13.022
			c18.466,2.528,33.558,11.343,44.586,25.612c5.819-5.159,11.141-10.545,17.139-15.029c8.035-6.004,17.533-8.789,27.331-10.677
			c9.787-1.887,19.558-0.55,28.723,2.015c7.915,2.215,15.572,6.564,22.35,11.371c12.201,8.655,19.327,21.321,24.262,35.239
			c0.437,1.231,0.713,2.592,0.716,3.894c0.047,18.15-0.002,36.299,0.074,54.45c0.01,2.255-0.44,3.623-2.756,4.562
			c-6.896,2.796-13.68,5.873-21.007,9.058c0-1.931,0-3.384,0-4.837c0-19.104,0.264-38.216-0.17-57.311
			c-0.12-5.319-1.407-11.035-3.752-15.782c-3.486-7.063-8.495-12.927-15.779-17.245c-7.718-4.576-15.568-6.954-24.213-6.501
			c-17.939,0.94-31.509,10.356-38.134,28.347c-2.048,5.56-2.335,11.044-2.335,16.723c-0.002,30.295-0.05,60.59,0.076,90.885
			c0.012,2.9-0.868,4.402-3.501,5.362c-6.616,2.411-13.176,4.975-20.297,7.682c0-1.817,0-3.381,0-4.944
			c0.001-34.799,0.229-69.6-0.152-104.395c-0.1-9.055-3.956-17.283-9.609-24.605c-5.631-7.293-13.275-11.555-21.728-13.856
			c-5.148-1.401-10.916-0.493-16.402-0.689c-7.999-0.287-14.401,3.62-20.273,8.241c-7.857,6.181-14.161,13.764-15.294,24.138
			c-0.808,7.391-0.863,14.887-0.885,22.336c-0.09,30.158-0.038,60.317-0.038,90.476c0,7.168-6.292,12.815-13.409,11.353
			c-7.715-1.585-10.479-3.35-10.437-11.805c0.254-51.584,0.126-103.167,0.127-154.751c0-5.542,3.892-9.515,9.537-9.316
			c2.882,0.102,5.971,0.343,8.56,1.461C586.371,306.781,588.67,310.615,587.441,316.302z"/>
		<path fill-rule="evenodd" clip-rule="evenodd" d="M145.06,219.027c0,26.661,0,53.931,0,81.657
			c5.054,0.583,9.94,1.166,14.832,1.706c9.733,1.075,19.481,2.034,29.2,3.229c4.097,0.503,6.388,3.165,5.799,7.188
			c-0.843,5.753-1.336,12.309-8.112,14.386c-3.431,1.052-7.442,0.433-11.173,0.237c-10.105-0.532-20.201-1.242-30.402-1.887
			c2.337,23.133,7.338,44.687,15.533,65.362c7.82,19.726,18.039,38.223,31.433,54.804c5.683,7.034,11.122,14.373,17.549,20.679
			c20.667,20.277,43.776,37.396,70.522,48.728c14.048,5.953,28.987,9.802,43.507,14.65c1.477,0.493,2.94,1.176,4.237,2.031
			c11.3,7.456,23.161,13.67,36.355,17.126c5.59,1.465,11.099,3.236,16.646,4.869c-0.053,0.54-0.106,1.08-0.16,1.62
			c-9.568,0-19.196,0.687-28.689-0.151c-16.789-1.48-33.588-3.072-49.985-7.593c-14.592-4.022-28.604-9.276-42.251-15.835
			c-13.788-6.627-26.896-14.323-39.304-23.159c-7.425-5.287-14.223-11.46-21.248-17.303c-15.065-12.527-27.115-27.854-37.812-43.965
			c-8.997-13.551-17.275-27.977-23.199-43.063c-6.439-16.401-10.07-33.945-14.341-51.136c-1.51-6.075-1.729-12.572-1.799-18.886
			c-0.417-37.474-0.623-74.951-0.884-112.428c-0.032-4.575,4.019-8.233,8.511-8.865C135.944,212.166,140.443,214.932,145.06,219.027
			z"/>
		<path fill-rule="evenodd" clip-rule="evenodd" d="M210.809,309.916c48.551,12.186,87.736,38.668,118.749,76.935
			c31.022,38.278,46.335,82.895,48.963,132.154c-4.823-0.961-9.867-1.731-14.738-3.113c-1.134-0.321-2.04-2.629-2.433-4.179
			c-1.771-6.977-3.177-14.046-4.976-21.015c-4.724-18.305-11.304-35.789-21.089-52.15c-7.772-12.997-15.089-26.331-25.218-37.579
			c-9.308-10.337-19.399-20.07-29.907-29.193c-8.563-7.435-18.199-13.647-27.502-20.199c-1.214-0.856-3.391-0.995-4.929-0.638
			c-11.371,2.643-12.967,12.088-13.265,21.249c-0.577,17.725-0.437,35.49,0.001,53.222c0.125,5.045-2.627,7.346-5.842,9.504
			c-4.363,2.93-15.222,0.054-17.826-4.411c-0.369-0.633-0.211-1.603-0.212-2.416c-0.004-38.899,0-77.8,0.012-116.7
			C210.597,310.985,210.709,310.583,210.809,309.916z"/>
		<path fill-rule="evenodd" clip-rule="evenodd" d="M675.309,510.258c3.229-3.538,5.556-1.992,8.119,0.782
			c2.742,2.97,5.517,6.568,9.046,8.001c5.754,2.336,11.994,4.015,18.503,2.429c10.088-2.459,17.006-8.678,19.789-18.452
			c1.464-5.141,0.769-10.896,1.1-17.374c5.492-2.757,12.286-6.169,18.73-9.405c26.688,19.3,47.6,43.392,62.956,72.932
			c-8.905,1.516-18.026,3.148-27.178,4.591c-4.636,0.73-9.313,1.397-13.994,1.609c-17.645,0.8-34.711-2.759-51.738-6.896
			c-12.481-3.033-22.705-9.487-32.064-18.086C682.327,524.647,678.912,517.419,675.309,510.258z"/>
		<path fill-rule="evenodd" clip-rule="evenodd" d="M823.897,438.362c6.453-3.199,12.532-6.011,18.396-9.214
			c2.554-1.395,3.797,0.145,4.675,1.617c3.574,5.997,8.877,10.134,14.251,14.327c8.215,6.411,17.432,10.384,27.481,12.966
			c15.012,3.855,29.172,0.589,42.495-5.683c7.617-3.586,14.048-9.693,21.585-15.073c5.386,4.381,11.449,9.312,17.326,14.091
			c-20.819,23.343-46.974,34.775-77.848,31.392C862.794,479.556,839.857,464.219,823.897,438.362z"/>
		<path fill-rule="evenodd" clip-rule="evenodd" d="M989.424,434.293c2.951,5.058,5.076,10.533,8.764,14.59
			c5.362,5.898,12.453,9.408,20.329,11.701c13.743,4.002,25.967-0.03,37.196-6.94c7.021-4.321,11.209-11.918,12.159-20.337
			c0.622-5.52-0.165-11.197-0.328-17.023c8.116,4.933,16.723,10.162,25.274,15.359c-1.351,22.218-14.433,36.421-32.447,46.709
			c-11.799,6.738-24.744,8.412-38.464,6.891c-12.573-1.394-23.439-5.923-33.338-13.374c-5.07-3.816-9.598-7.845-8.276-15.346
			c0.606-3.44,0.263-7.085,0.069-10.623C980.019,439.612,981.01,435.769,989.424,434.293z"/>
		<path fill-rule="evenodd" clip-rule="evenodd" d="M378.893,379.855c-0.804-2.484-1.444-4.214-1.92-5.988
			c-0.902-3.356-1.711-6.739-2.559-10.11c-1.482-5.887-6.572-10.264-12.696-10.592c-12.714-0.682-22.518,5.927-24.132,19.417
			c-0.287,2.395,0.592,4.928,1.006,7.926c-5.481-4.55-9.661-9.57-12.004-15.813c-3.266-8.705-6.964-17.371-8.988-26.388
			c-2.579-11.494-4.197-23.29-2.658-35.15c16.451,2.975,30.417,11.063,42.851,21.195c9.828,8.009,19.604,16.82,23.195,29.998
			C383.27,362.722,382.962,370.91,378.893,379.855z"/>
		<path fill-rule="evenodd" clip-rule="evenodd" d="M234.017,308.808c-7.104-1.91-14.191-3.711-21.187-5.813
			c-0.979-0.294-2.156-2.064-2.161-3.156c-0.121-26.463-0.104-52.925-0.076-79.389c0.002-2.318,5.644-7.2,8.5-7.291
			c4.998-0.158,10.247-0.872,13.502,4.379c0.63,1.018,1.624,2.111,1.626,3.172c0.083,28.918,0.059,57.836,0.042,86.754
			C234.264,307.861,234.122,308.259,234.017,308.808z"/>
		<path fill-rule="evenodd" clip-rule="evenodd" d="M117.103,355.482c-26.427-9.768-46.627-25.957-59.348-50.884
			c13.224-3.923,42.965-5.926,56.154-5.237c0,2.895,0,5.835,0,8.776c0,5.322-0.361,10.673,0.08,15.958
			c0.781,9.363,2.061,18.686,3.098,28.028C117.205,353.186,117.103,354.272,117.103,355.482z"/>
		<path fill-rule="evenodd" clip-rule="evenodd" d="M803.471,448.992c0,6.908,0.001,13.044,0,19.181
			c-0.001,7.606-6.588,12.863-14.061,10.912c-2.488-0.649-4.944-1.95-7.033-3.477c-2.349-1.716-3.803-11.579-2.415-14.036
			c0.247-0.438,0.744-0.798,1.207-1.038C788.399,456.772,795.644,453.037,803.471,448.992z"/>
	</g>
</g>
</svg>
